Coordinates
version=1
nRows=9
nColumns=63
inDegrees=yes

Units are S.I. units (second, meters, Newtons, ...)
If the header above contains a line with 'inDegrees', this indicates whether rotational values are in degrees (yes) or radians (no).

endheader
time	pelvis_tilt	pelvis_list	pelvis_rotation	pelvis_tx	pelvis_ty	pelvis_tz	hip_flexion_r	hip_adduction_r	hip_rotation_r	knee_angle_r	knee_angle_r_beta	ankle_angle_r	subtalar_angle_r	mtp_angle_r	hip_flexion_l	hip_adduction_l	hip_rotation_l	knee_angle_l	knee_angle_l_beta	ankle_angle_l	subtalar_angle_l	mtp_angle_l	L5_S1_Flex_Ext	L5_S1_Lat_Bending	L5_S1_axial_rotation	L4_L5_Flex_Ext	L4_L5_Lat_Bending	L4_L5_axial_rotation	L3_L4_Flex_Ext	L3_L4_Lat_Bending	L3_L4_axial_rotation	L2_L3_Flex_Ext	L2_L3_Lat_Bending	L2_L3_axial_rotation	L1_L2_Flex_Ext	L1_L2_Lat_Bending	L1_L2_axial_rotation	L1_T12_Flex_Ext	L1_T12_Lat_Bending	L1_T12_axial_rotation	Abs_r3	Abs_r2	Abs_r1	Abs_t1	Abs_t2	neck_flexion	neck_bending	neck_rotation	arm_flex_r	arm_add_r	arm_rot_r	elbow_flex_r	pro_sup_r	wrist_flex_r	wrist_dev_r	arm_flex_l	arm_add_l	arm_rot_l	elbow_flex_l	pro_sup_l	wrist_flex_l	wrist_dev_l
      0.00000000	     -2.40377959	     -3.13660369	     82.89846421	      0.32730678	      0.97409379	      0.40772102	     -0.32765110	      1.35429497	      6.93641265	      2.94236724	      0.05135400	     25.82186652	     -5.87219927	      0.00000000	      5.18892823	     -1.71971548	      2.48151283	     12.85279754	      0.22432364	     30.93401546	     -8.11882577	      0.00000000	      0.29804344	      0.11490896	      1.55985794	      0.55349648	      0.15282892	      1.65734906	      0.48965557	      0.27938965	      1.65734906	      0.34063385	      0.27938965	      1.36487570	      0.27676314	      0.23432235	      1.26738457	      0.17030202	      0.17799398	      1.16989345	      2.12889452	      1.29987314	      8.67546189	      0.00000000	      0.00000000	     27.68950617	     -3.01547261	     -8.86758298	     10.81929977	    -12.03108048	     74.11320561	     46.63511949	      3.32961687	     -0.03037077	     13.15070091	     14.69504574	     -9.85253412	     70.34776853	     43.90070930	     71.78608657	     12.11137471	     -1.78158326
      0.01694915	     -2.78651383	     -3.21622449	     82.90420502	      0.32769986	      0.97360565	      0.40783836	     -0.23858421	      0.95885715	      7.55411767	      3.25732759	      0.05685109	     25.27067777	     -6.94824851	      0.00000000	      5.23843531	     -1.26626550	      2.83641404	     12.74181303	      0.22238659	     31.31724848	     -8.43057330	      0.00000000	      0.30789355	      0.04324483	      1.72295925	      0.57178912	      0.05751563	      1.83064420	      0.50583832	      0.10514549	      1.83064420	      0.35189154	      0.10514549	      1.50758934	      0.28590995	      0.08818487	      1.39990439	      0.17593038	      0.06698625	      1.29221943	      2.19925287	      0.48919421	      9.58258244	      0.00000000	      0.00000000	     27.77930718	     -3.51009709	    -10.95401418	     10.88884612	    -12.15612526	     74.14178449	     46.75728399	      6.72621648	     -0.28851311	      9.99333223	     13.69288157	    -10.11651238	     67.38966966	     45.03886365	     69.56326075	     10.88809864	      0.88092397
      0.03389831	     -3.05691653	     -3.23531471	     82.90819432	      0.32805606	      0.97318507	      0.40780826	     -0.26995184	      0.70657489	      8.91861460	      3.44442531	      0.06011656	     24.47585752	     -9.19178946	      0.00000000	      5.24067220	     -0.96633959	      2.90572011	     12.70084256	      0.22167152	     31.63770211	     -8.46647837	      0.00000000	      0.30907164	     -0.00576904	      1.81961127	      0.57397694	     -0.00767282	      1.93333698	      0.50777379	     -0.01402683	      1.93333698	      0.35323798	     -0.01402683	      1.59215986	      0.28700392	     -0.01176422	      1.47843416	      0.17660353	     -0.00893624	      1.36470845	      2.20766780	     -0.06526049	     10.12013200	      0.00000000	      0.00000000	     27.83543514	     -3.63095222	    -11.95948161	     10.96126953	    -12.06065385	     73.22994971	     45.82231475	     24.44532473	      0.30187795	      7.61619345	     13.32271753	    -10.38362154	     66.41270096	     45.73023149	     68.34147002	     10.10915042	      1.73644792
      0.05084746	     -3.20423186	     -3.29714906	     82.91165272	      0.32810381	      0.97284228	      0.40777586	     -0.20100517	      0.53252214	      8.79964769	      3.68120912	      0.06424922	     24.25792928	     -9.28723307	      0.00000000	      5.23600610	     -0.75411779	      3.36364677	     12.56861612	      0.21936373	     31.63484980	     -9.14041318	      0.00000000	      0.31527448	     -0.03278791	      1.86420071	      0.58549624	     -0.04360793	      1.98071325	      0.51796445	     -0.07972054	      1.98071325	      0.36032720	     -0.07972054	      1.63117562	      0.29276388	     -0.06686112	      1.51466308	      0.18014784	     -0.05078848	      1.39815053	      2.25197409	     -0.37090345	     10.36812508	      0.00000000	      0.00000000	     27.86795577	     -3.69608021	    -12.77948093	     10.92022251	    -11.96101806	     71.66315170	     45.26931287	     42.90498509	     -0.26050749	      6.41923465	     13.13328248	    -10.53151828	     66.02945480	     46.11138256	     68.13829897	      9.77578518	      2.21856275
      0.06779661	     -3.29148066	     -3.34102806	     82.83382850	      0.32826381	      0.97256569	      0.40766201	     -0.15434011	      0.39188248	      7.76816466	      3.86648697	      0.06748293	     24.40202840	     -7.95323460	      0.00000000	      5.22013107	     -0.74071087	      2.55007196	     12.46884764	      0.21762245	     31.91029081	     -8.22250712	      0.00000000	      0.32299764	     -0.04500376	      1.86423844	      0.59983892	     -0.05985501	      1.98075334	      0.53065282	     -0.10942215	      1.98075334	      0.36915400	     -0.10942215	      1.63120863	      0.29993561	     -0.09177168	      1.51469373	      0.18456085	     -0.06971083	      1.39817883	      2.30713984	     -0.50909158	     10.36833492	      0.00000000	      0.00000000	     27.88642682	     -3.58602111	    -12.69362472	     10.99770568	    -11.84394288	     71.78355899	     45.16679004	     43.23315601	     -0.51018674	      6.58392199	     13.08074609	    -10.74206214	     66.33086604	     46.40654925	     67.66900494	      9.56048774	      2.41480288
      0.08474576	     -3.43179397	     -3.41199573	     82.78104703	      0.32815273	      0.97220544	      0.40752035	     -0.07204695	      0.23534999	      7.93540244	      4.00415996	      0.06988578	     24.26835998	     -8.41066482	      0.00000000	      5.24715346	     -0.55307920	      2.82094654	     12.37712760	      0.21602163	     31.75948397	     -8.85367892	      0.00000000	      0.33093490	     -0.06122672	      1.84280914	      0.61457921	     -0.08143154	      1.95798471	      0.54369295	     -0.14886666	      1.95798471	      0.37822550	     -0.14886666	      1.61245800	      0.30730615	     -0.12485354	      1.49728243	      0.18909620	     -0.09484020	      1.38210686	      2.36383491	     -0.69260895	     10.24915161	      0.00000000	      0.00000000	     27.90143379	     -3.72999424	    -13.00873191	     10.93044208	    -11.75821738	     71.49968310	     45.27336990	     43.31009780	     -0.69778723	      7.47628996	     12.72856331	    -10.76573490	     65.15559929	     46.38677545	     72.32068835	     11.03737964	      1.91272857
      0.10169492	     -3.48133591	     -3.45917304	     82.76366170	      0.32804718	      0.97197055	      0.40738959	     -0.03328808	      0.15781386	      7.60412328	      4.07293527	      0.07108613	     24.31842186	     -8.09667294	      0.00000000	      5.24007434	     -0.49412719	      2.89433223	     12.27244674	      0.21419460	     31.69649847	     -9.07517154	      0.00000000	      0.33753749	     -0.06425797	      1.81771824	      0.62684088	     -0.08546310	      1.93132563	      0.55454035	     -0.15623683	      1.93132563	      0.38577160	     -0.15623683	      1.59050346	      0.31343732	     -0.13103486	      1.47689607	      0.19286892	     -0.09953560	      1.36328868	      2.41099656	     -0.72689903	     10.10960354	      0.00000000	      0.00000000	     27.90338053	     -3.76117951	    -12.96219014	     10.82522926	    -11.68331034	     71.37684307	     45.29706653	     40.53810687	     -0.43088729	      8.32083778	     12.73338716	    -10.80633771	     65.26727233	     46.26679888	     74.52081399	     11.71157243	      1.06004469
      0.11864407	     -3.49032714	     -3.43477657	     82.69809569	      0.32802179	      0.97194410	      0.40721867	     -0.05541029	      0.08009494	      6.49978145	      4.13027487	      0.07208690	     24.67015081	     -6.42765342	      0.00000000	      5.13498082	     -0.57028591	      1.95874189	     12.13726790	      0.21183529	     31.85850175	     -8.01072245	      0.00000000	      0.33651473	     -0.06155739	      1.79589566	      0.62494151	     -0.08187132	      1.90813913	      0.55286006	     -0.14967063	      1.90813913	      0.38460269	     -0.14967063	      1.57140870	      0.31248758	     -0.12552782	      1.45916522	      0.19228452	     -0.09535239	      1.34692174	      2.40369110	     -0.69634946	      9.98823287	      0.00000000	      0.00000000	     27.89159811	     -3.52869861	    -12.58049166	     10.89148591	    -11.60153113	     71.62646119	     45.17978335	     40.31893682	     -0.50011585	      8.56561637	     12.84857508	    -10.96231390	     66.01490099	     46.51442631	     73.39052077	     11.54433224	      1.58414807
      0.13559322	     -3.55700920	     -3.48331563	     82.71608591	      0.32797538	      0.97178264	      0.40745112	      0.01656582	      0.02615923	      6.75367448	      4.14076242	      0.07226994	     24.66459543	     -6.81359515	      0.00000000	      5.21845235	     -0.44562399	      2.64344553	     12.14815754	      0.21202535	     31.62345036	     -8.95233008	      0.00000000	      0.33817703	     -0.07338297	      1.82830210	      0.62802856	     -0.09759934	      1.94257098	      0.55559104	     -0.17842334	      1.94257098	      0.38650252	     -0.17842334	      1.59976434	      0.31403119	     -0.14964254	      1.48549546	      0.19323435	     -0.11367021	      1.37122658	      2.41556469	     -0.83012278	     10.16846780	      0.00000000	      0.00000000	     27.88549510	     -3.81009172	    -13.26187826	     10.61365034	    -11.58516756	     71.06137904	     45.35516530	     35.05151915	     -0.29124019	      9.64447064	     13.12205742	    -10.85449105	     66.27116535	     46.09042849	     76.79951368	     12.30270786	     -0.12507133
